# xmcd CD database file
#
# Track frame offsets:
#	150
#	11027
#	27870
#	44321
#	63076
#	76326
#	89541
#	102011
#	115038
#	129890
#	146511
#
# Disc length: 2175 seconds
#
# Revision: 4
# Processed by: cddbd v1.4PL0 Copyright (c) Steve Scherf et al.
# Submitted via: CDex 1.40Beta9
#
DISCID=7f087d0b
DTITLE=The Commitments - The Commitments Vol. 2
DYEAR=1992
DGENRE=Soundtrack
TTITLE0=Hard To Handle
TTITLE1=Grits Ain't Groceries
TTITLE2=I Thank You
TTITLE3=That's The Way Love Is
TTITLE4=Show Me
TTITLE5=Saved
TTITLE6=Too Many Fish In The Sea
TTITLE7=Fa-Fa-Fa-Fa-Fa (Sad Song)
TTITLE8=Land Of A Thousand Dances
TTITLE9=Nowhere To Run
TTITLE10=Bring It On Home To Me
EXTD=YEAR: 1992 ID3G: 24
EXTT0=
EXTT1=
EXTT2=
EXTT3=
EXTT4=
EXTT5=
EXTT6=
EXTT7=
EXTT8=
EXTT9=
EXTT10=
PLAYORDER=
